<svg width="18" height="18" viewBox="0 0 18 18" fill="none" xmlns="http://www.w3.org/2000/svg">
<path fill-rule="evenodd" clip-rule="evenodd" d="M2.21304 4.79998C2.22804 5.55898 1.81504 6.58498 1.27804 7.12098C1.03107 7.36782 0.835157 7.6609 0.70149 7.98348C0.567822 8.30605 0.499023 8.65181 0.499023 9.00098C0.499023 9.35016 0.567822 9.69591 0.70149 10.0185C0.835157 10.3411 1.03107 10.6341 1.27804 10.881C1.80804 11.409 2.19804 12.325 2.21304 13.073C2.22704 13.735 2.48604 14.393 2.99104 14.897C3.45685 15.364 4.08019 15.6404 4.73904 15.672C5.53004 15.712 6.56604 16.172 7.12604 16.732C7.37286 16.9788 7.66588 17.1746 7.98836 17.3082C8.31085 17.4418 8.65649 17.5105 9.00554 17.5105C9.3546 17.5105 9.70024 17.4418 10.0227 17.3082C10.3452 17.1746 10.6382 16.9788 10.885 16.732C11.445 16.172 12.481 15.712 13.272 15.672C13.9309 15.6404 14.5542 15.364 15.02 14.897C15.5058 14.4119 15.7843 13.7573 15.797 13.071C15.812 12.325 16.197 11.415 16.726 10.887C17.2262 10.3884 17.5079 9.71148 17.509 9.00523C17.5101 8.29897 17.2306 7.62119 16.732 7.12098C16.196 6.58598 15.782 5.55898 15.798 4.80098C15.8056 4.4431 15.7405 4.0874 15.6068 3.75535C15.4731 3.42329 15.2735 3.12177 15.02 2.86898C14.7573 2.60567 14.4422 2.40059 14.095 2.26707C13.7479 2.13355 13.3765 2.07458 13.005 2.09398C12.291 2.12998 11.39 1.78398 10.885 1.27798C10.6382 1.03101 10.3451 0.835096 10.0225 0.701429C9.69997 0.567761 9.35422 0.498962 9.00504 0.498962C8.65587 0.498962 8.31012 0.567761 7.98754 0.701429C7.66496 0.835096 7.37188 1.03101 7.12504 1.27798C6.62104 1.78298 5.71904 2.12998 5.00504 2.09398C4.63377 2.07472 4.26259 2.13376 3.91562 2.26728C3.56864 2.4008 3.25363 2.6058 2.99104 2.86898C2.73772 3.12166 2.53819 3.42301 2.40448 3.75488C2.27077 4.08675 2.20565 4.44227 2.21304 4.79998ZM12.041 5.62598C12.1559 5.68972 12.2571 5.77546 12.3388 5.87831C12.4205 5.98115 12.4812 6.0991 12.5173 6.22539C12.5534 6.35169 12.5643 6.48386 12.5493 6.61437C12.5344 6.74487 12.4938 6.87115 12.43 6.98598L9.66204 11.968C9.58979 12.1033 9.48793 12.2205 9.36404 12.311C9.1833 12.4415 8.96413 12.508 8.74131 12.4999C8.51849 12.4917 8.30477 12.4094 8.13404 12.266L5.37504 10.059C5.27248 9.97691 5.18709 9.87543 5.12374 9.76036C5.0604 9.64528 5.02034 9.51885 5.00585 9.38829C4.99137 9.25773 5.00274 9.1256 5.03932 8.99943C5.0759 8.87327 5.13697 8.75554 5.21904 8.65298C5.30112 8.55042 5.40259 8.46503 5.51767 8.40168C5.63275 8.33834 5.75918 8.29828 5.88974 8.28379C6.02029 8.2693 6.15243 8.28068 6.27859 8.31726C6.40476 8.35384 6.52248 8.41491 6.62504 8.49698L8.47804 9.97998L10.681 6.01398C10.7449 5.8992 10.8307 5.79812 10.9336 5.7165C11.0364 5.63489 11.1544 5.57433 11.2807 5.5383C11.407 5.50227 11.5391 5.49147 11.6696 5.50652C11.8 5.52156 11.9263 5.56216 12.041 5.62598Z" fill="#2DA0F9"/>
</svg>
