<svg width="33" height="21" viewBox="0 0 33 21" fill="none" xmlns="http://www.w3.org/2000/svg">
<path d="M5.75 1.45V11.95C5.75 13 6.00833 13.8083 6.525 14.375C7.04167 14.9417 7.8 15.225 8.8 15.225C9.8 15.225 10.5667 14.9417 11.1 14.375C11.6333 13.8083 11.9 13 11.9 11.95V1.45H16.175V11.925C16.175 13.4917 15.8417 14.8167 15.175 15.9C14.5083 16.9833 13.6083 17.8 12.475 18.35C11.3583 18.9 10.1083 19.175 8.725 19.175C7.34167 19.175 6.1 18.9083 5 18.375C3.91667 17.825 3.05833 17.0083 2.425 15.925C1.79167 14.825 1.475 13.4917 1.475 11.925V1.45H5.75ZM23.727 15.5H31.277V19H18.877V15.75L26.377 4.95H18.877V1.45H31.277V4.7L23.727 15.5Z" fill="#004290"/>
</svg>
